<mxfile host="app.diagrams.net" modified="2023-02-22T17:19:51.207Z" agent="5.0 (Windows NT 10.0; Win64; x64) AppleWebKit/537.36 (KHTML, like Gecko) Chrome/112.0.0.0 Safari/537.36" etag="9PSlcixwODrZWYrccHdA" version="20.8.22" type="github">
  <diagram name="第 1 页" id="w5kMuyohykV-fYUs5tee">
    <mxGraphModel dx="1050" dy="549" grid="1" gridSize="10" guides="1" tooltips="1" connect="1" arrows="1" fold="1" page="1" pageScale="1" pageWidth="827" pageHeight="1169" math="0" shadow="0">
      <root>
        <mxCell id="0" />
        <mxCell id="1" parent="0" />
        <mxCell id="158hAJmfXYxpWNlwyLz5-7" value="" style="edgeStyle=orthogonalEdgeStyle;rounded=0;orthogonalLoop=1;jettySize=auto;html=1;" edge="1" parent="1" source="158hAJmfXYxpWNlwyLz5-1" target="158hAJmfXYxpWNlwyLz5-5">
          <mxGeometry relative="1" as="geometry" />
        </mxCell>
        <mxCell id="158hAJmfXYxpWNlwyLz5-9" value="" style="edgeStyle=orthogonalEdgeStyle;rounded=0;orthogonalLoop=1;jettySize=auto;html=1;startArrow=classic;startFill=1;" edge="1" parent="1" source="158hAJmfXYxpWNlwyLz5-1" target="158hAJmfXYxpWNlwyLz5-2">
          <mxGeometry relative="1" as="geometry" />
        </mxCell>
        <mxCell id="158hAJmfXYxpWNlwyLz5-1" value="主库1" style="aspect=fixed;perimeter=ellipsePerimeter;html=1;align=center;shadow=0;dashed=0;spacingTop=3;image;image=img/lib/active_directory/database.svg;" vertex="1" parent="1">
          <mxGeometry x="242" y="315" width="117.57" height="87" as="geometry" />
        </mxCell>
        <mxCell id="158hAJmfXYxpWNlwyLz5-8" value="" style="edgeStyle=orthogonalEdgeStyle;rounded=0;orthogonalLoop=1;jettySize=auto;html=1;" edge="1" parent="1" source="158hAJmfXYxpWNlwyLz5-2" target="158hAJmfXYxpWNlwyLz5-6">
          <mxGeometry relative="1" as="geometry" />
        </mxCell>
        <mxCell id="158hAJmfXYxpWNlwyLz5-2" value="主库2" style="aspect=fixed;perimeter=ellipsePerimeter;html=1;align=center;shadow=0;dashed=0;spacingTop=3;image;image=img/lib/active_directory/database.svg;" vertex="1" parent="1">
          <mxGeometry x="441" y="315" width="117.57" height="87" as="geometry" />
        </mxCell>
        <mxCell id="158hAJmfXYxpWNlwyLz5-5" value="备库1" style="aspect=fixed;perimeter=ellipsePerimeter;html=1;align=center;shadow=0;dashed=0;spacingTop=3;image;image=img/lib/active_directory/database.svg;" vertex="1" parent="1">
          <mxGeometry x="82" y="315" width="117.57" height="87" as="geometry" />
        </mxCell>
        <mxCell id="158hAJmfXYxpWNlwyLz5-6" value="备库2" style="aspect=fixed;perimeter=ellipsePerimeter;html=1;align=center;shadow=0;dashed=0;spacingTop=3;image;image=img/lib/active_directory/database.svg;" vertex="1" parent="1">
          <mxGeometry x="601" y="315" width="117.57" height="87" as="geometry" />
        </mxCell>
        <mxCell id="158hAJmfXYxpWNlwyLz5-10" value="业务服务器" style="rounded=0;whiteSpace=wrap;html=1;align=center;shadow=1;verticalAlign=top;dashed=1;" vertex="1" parent="1">
          <mxGeometry x="60" y="20" width="740" height="250" as="geometry" />
        </mxCell>
        <mxCell id="158hAJmfXYxpWNlwyLz5-11" value="业务层服务集群" style="rounded=1;whiteSpace=wrap;html=1;shadow=1;strokeColor=#d79b00;fontFamily=Helvetica;fontSize=12;fillColor=#ffe6cc;verticalAlign=top;" vertex="1" parent="1">
          <mxGeometry x="140" y="50" width="560" height="140" as="geometry" />
        </mxCell>
        <mxCell id="158hAJmfXYxpWNlwyLz5-13" value="DDB数据访问层" style="rounded=1;whiteSpace=wrap;html=1;shadow=1;strokeColor=#d79b00;fontFamily=Helvetica;fontSize=12;fillColor=#ffe6cc;verticalAlign=middle;" vertex="1" parent="1">
          <mxGeometry x="140" y="215" width="560" height="40" as="geometry" />
        </mxCell>
      </root>
    </mxGraphModel>
  </diagram>
</mxfile>
